<mxfile host="app.diagrams.net" modified="2022-03-04T03:15:17.157Z" agent="5.0 (Macintosh; Intel Mac OS X 10_15_7) AppleWebKit/537.36 (KHTML, like Gecko) Chrome/99.0.4844.51 Safari/537.36" etag="fpBeegkEoSCEpvd-nAAr" version="16.6.5" type="github">
  <diagram id="9ZpSaxzcpz4ULXaL1X-T" name="第 1 页">
    <mxGraphModel dx="1426" dy="737" grid="1" gridSize="10" guides="1" tooltips="1" connect="1" arrows="1" fold="1" page="1" pageScale="1" pageWidth="827" pageHeight="1169" background="none" math="0" shadow="0">
      <root>
        <mxCell id="0" />
        <mxCell id="1" parent="0" />
        <mxCell id="QuoUFKUlMbN6moup9SOk-3" value="消息长度" style="rounded=0;whiteSpace=wrap;html=1;fillStyle=auto;fillColor=#e1d5e7;gradientDirection=north;sketch=1;strokeColor=#9673a6;" parent="1" vertex="1">
          <mxGeometry x="120" y="100" width="120" height="50" as="geometry" />
        </mxCell>
        <mxCell id="QuoUFKUlMbN6moup9SOk-5" value="序号" style="rounded=0;whiteSpace=wrap;html=1;fillStyle=auto;fillColor=#e1d5e7;gradientDirection=north;sketch=1;strokeColor=#9673a6;" parent="1" vertex="1">
          <mxGeometry x="240" y="100" width="70" height="50" as="geometry" />
        </mxCell>
        <mxCell id="QuoUFKUlMbN6moup9SOk-7" value="n bytes 报文数据" style="rounded=0;whiteSpace=wrap;html=1;fillStyle=auto;fillColor=#d5e8d4;gradientDirection=north;sketch=1;strokeColor=#82b366;" parent="1" vertex="1">
          <mxGeometry x="400" y="100" width="200" height="50" as="geometry" />
        </mxCell>
        <mxCell id="MB-VqiBG7htkjkmLjJ8e-1" value="" style="shape=crossbar;whiteSpace=wrap;html=1;rounded=1;sketch=1;fillColor=#e1d5e7;strokeColor=#9673a6;" vertex="1" parent="1">
          <mxGeometry x="120" y="160" width="190" height="20" as="geometry" />
        </mxCell>
        <mxCell id="MB-VqiBG7htkjkmLjJ8e-2" value="消息头" style="text;html=1;strokeColor=none;fillColor=none;align=center;verticalAlign=middle;whiteSpace=wrap;rounded=0;sketch=0;shadow=0;glass=0;" vertex="1" parent="1">
          <mxGeometry x="190" y="180" width="50" height="10" as="geometry" />
        </mxCell>
        <mxCell id="MB-VqiBG7htkjkmLjJ8e-3" value="" style="shape=crossbar;whiteSpace=wrap;html=1;rounded=1;sketch=1;fillColor=#d5e8d4;strokeColor=#82b366;" vertex="1" parent="1">
          <mxGeometry x="310" y="160" width="290" height="20" as="geometry" />
        </mxCell>
        <mxCell id="MB-VqiBG7htkjkmLjJ8e-4" value="消息体" style="text;html=1;strokeColor=none;fillColor=none;align=center;verticalAlign=middle;whiteSpace=wrap;rounded=0;sketch=0;shadow=0;glass=0;" vertex="1" parent="1">
          <mxGeometry x="430" y="180" width="50" height="10" as="geometry" />
        </mxCell>
        <mxCell id="MB-VqiBG7htkjkmLjJ8e-6" value="请求消息类型" style="rounded=0;whiteSpace=wrap;html=1;fillStyle=auto;fillColor=#d5e8d4;gradientDirection=north;sketch=1;strokeColor=#82b366;" vertex="1" parent="1">
          <mxGeometry x="310" y="100" width="90" height="50" as="geometry" />
        </mxCell>
      </root>
    </mxGraphModel>
  </diagram>
</mxfile>
